<svg version="1.1" id="Layer_1" xmlns="http://www.w3.org/2000/svg" xmlns:xlink="http://www.w3.org/1999/xlink" x="0px" y="0px"
	 width="100%" viewBox="0 0 500 500" enable-background="new 0 0 500 500" xml:space="preserve">
<path fill="#454545" opacity="1.000000" stroke="none" 
	d="
M501.000000,201.000000 
	C501.000000,232.687561 501.000000,264.375122 500.629761,296.622772 
	C499.177185,298.970154 497.253632,300.714874 497.160614,302.552277 
	C496.791656,309.844086 496.982178,317.164948 496.993195,324.474976 
	C496.996643,326.781769 496.860199,328.987488 493.755585,328.942566 
	C489.589081,328.882324 488.903076,331.408722 488.982391,334.842834 
	C489.093597,339.657990 489.144409,344.487579 488.862366,349.289917 
	C488.789337,350.533295 487.283081,352.788513 486.598755,352.728027 
	C480.685150,352.205353 480.740173,355.892120 480.970612,359.975952 
	C481.082581,361.960205 480.921265,363.959930 480.469971,365.972839 
	C478.594208,366.091217 477.073883,365.966644 475.681458,366.330841 
	C472.069916,367.275543 470.823273,370.790558 472.820190,374.397186 
	C472.724274,375.438751 472.606842,376.129333 472.185547,376.814026 
	C466.388336,376.675415 464.746918,378.693176 465.064819,385.577057 
	C464.271149,388.280518 463.585327,392.486908 462.736450,392.520081 
	C456.658020,392.757507 456.858337,396.615112 456.973083,400.828461 
	C457.080414,404.768250 457.881226,409.233246 451.707581,409.491608 
	C451.042969,409.519409 450.377625,410.398560 449.777802,410.953278 
	C447.446930,413.108826 444.430695,414.906250 442.991760,417.555206 
	C440.729218,421.720428 438.507385,425.431122 433.592072,426.639801 
	C433.202271,432.902802 423.844666,432.624023 424.127808,439.520721 
	C424.145660,439.955872 422.280090,440.664307 421.213074,440.915619 
	C415.014893,442.375488 412.622070,448.339966 409.680023,452.532776 
	C407.447418,455.714600 406.675232,457.786255 403.008240,456.339325 
	C406.211578,454.376343 408.431427,452.470886 405.669922,448.610840 
	C404.754547,449.182739 403.924896,449.481110 403.412994,450.060364 
	C401.558075,452.159363 399.809784,454.352631 397.690704,456.640930 
	C395.981201,457.680389 393.392944,458.620819 393.415710,459.493011 
	C393.588226,466.100861 389.037231,464.996094 384.732910,464.991852 
	C380.009888,463.906067 377.734955,465.391754 377.924530,470.621704 
	C380.332275,470.744446 382.584869,470.859314 384.767273,471.366547 
	C381.544647,472.184784 378.401093,472.855316 375.237335,472.970337 
	C371.822357,473.094482 369.675995,474.040009 368.815735,477.766479 
	C368.514130,479.072937 366.341492,480.466064 364.787415,480.840332 
	C362.589294,481.369690 360.165863,481.105469 357.850708,480.972107 
	C354.748535,480.793457 352.559021,481.419342 352.981873,485.221863 
	C353.343719,488.475586 351.418793,489.068146 348.691498,489.017059 
	C343.548706,488.920654 338.401031,489.078766 333.258575,488.974060 
	C330.488617,488.917633 328.650330,489.602142 329.008759,492.815674 
	C329.438263,496.666656 327.151459,497.074005 324.100403,497.029724 
	C316.800079,496.923798 309.496796,497.042450 302.195068,497.003540 
	C299.359497,496.988434 297.279480,497.777924 297.000000,501.000000 
	C265.312439,501.000000 233.624878,501.000000 201.403885,500.625580 
	C198.899597,499.160553 196.974243,497.240265 194.949661,497.129211 
	C187.837830,496.739197 180.685730,497.125977 173.563797,496.843048 
	C172.055374,496.783112 169.347290,495.139832 169.346893,494.225128 
	C169.344879,489.447144 166.669800,488.757751 162.881668,488.990173 
	C161.064224,489.101715 159.224243,488.876343 157.410828,489.016083 
	C154.308472,489.255127 152.637985,488.171417 152.994400,484.829041 
	C153.335663,481.628632 151.540024,480.913605 148.756760,480.974304 
	C143.782700,481.082764 138.803329,480.930481 133.828186,481.011017 
	C130.925262,481.057983 129.216690,480.250916 128.827682,476.942383 
	C128.664597,475.555511 127.004944,473.364899 125.846764,473.243256 
	C120.650101,472.697418 120.593063,469.675018 121.583878,465.715485 
	C121.579788,465.344116 121.474220,465.131500 120.957764,464.903656 
	C120.415024,464.804108 120.198593,464.760742 119.904922,464.379517 
	C118.954369,463.403839 118.151466,462.622742 117.195541,462.153198 
	C113.066635,460.125153 108.094948,459.004181 104.985664,455.962677 
	C102.455994,453.488251 100.297676,452.986450 97.299744,452.599731 
	C96.130394,446.641022 91.716843,449.263519 88.822891,449.128937 
	C80.978630,448.764160 80.967415,449.005310 80.985962,440.817963 
	C81.375854,434.010986 81.375854,434.010986 72.718079,431.840302 
	C70.517929,430.197418 68.691734,428.658905 66.750557,427.282562 
	C65.561302,426.439362 64.195717,425.844849 62.488155,425.097443 
	C58.238140,425.463501 56.524212,423.895782 56.991821,419.930328 
	C57.224171,417.959961 57.001091,415.939148 57.044327,413.942474 
	C57.107182,411.039551 56.106022,409.047028 52.871788,408.935486 
	C49.856762,408.831421 49.200432,407.004944 48.790562,404.352905 
	C48.597343,403.102661 46.649467,401.050507 45.710682,401.162109 
	C39.426025,401.909180 42.462559,395.153046 39.631767,393.865448 
	C36.234951,392.320404 32.497559,391.792358 32.985920,386.762054 
	C33.177963,384.783905 33.383965,382.665466 32.872257,380.806763 
	C32.484840,379.399536 31.022987,377.301025 29.945919,377.242981 
	C25.479639,377.002319 24.832994,374.404755 24.989443,370.834015 
	C25.084049,368.674744 25.367264,366.406708 24.835339,364.379150 
	C24.494204,363.078827 22.771727,361.138092 21.757420,361.190979 
	C17.397200,361.418274 16.760918,359.122223 16.980219,355.627502 
	C17.125757,353.308319 17.268614,350.906067 16.811279,348.663605 
	C16.545053,347.358154 15.009024,345.230499 14.186438,345.294678 
	C8.727198,345.720459 8.806568,342.359406 8.969229,338.586151 
	C9.105324,335.429199 9.006063,332.261536 8.991599,329.098724 
	C8.958222,321.800720 8.533339,321.375153 1.000000,321.000000 
	C1.000000,275.979095 1.000000,230.958206 1.433392,185.478378 
	C8.734365,184.911514 8.975922,184.685791 9.009419,178.087479 
	C9.027966,174.434326 9.306156,170.750885 8.937178,167.135208 
	C8.454570,162.406036 10.071889,160.241882 15.321672,160.959488 
	C21.670977,158.809387 22.479158,149.204407 17.118729,143.516022 
	C16.682606,139.393707 16.983515,136.453903 22.030697,136.831772 
	C22.933617,136.899368 24.425625,135.106857 24.859873,133.892288 
	C25.392467,132.402649 25.098808,130.617615 25.576437,128.967773 
	C32.478333,128.789459 32.831169,128.382111 32.994884,120.515572 
	C33.889759,118.091309 34.322186,114.733673 35.729317,114.257729 
	C41.187599,112.411522 41.219288,108.361824 41.485245,104.064804 
	C43.996033,103.969788 46.143425,103.773376 48.290821,103.576965 
	C47.666164,101.704147 47.045513,99.829964 46.412907,97.959839 
	C46.307678,97.648758 46.150337,97.355301 45.947208,97.003922 
	C45.877338,96.954140 45.862064,96.783249 46.242874,96.781998 
	C50.919262,97.062668 50.123283,91.640846 52.323975,91.039665 
	C57.724106,89.564461 58.255383,81.392906 65.093414,82.329285 
	C65.545563,82.391197 66.716263,80.590805 66.761360,79.619873 
	C66.910126,76.417465 67.933136,74.255989 71.377975,73.497612 
	C72.222633,73.311661 72.658989,71.685860 73.499504,70.979614 
	C75.231094,69.524673 77.109947,68.245186 78.925713,66.890175 
	C80.240303,65.909164 82.553596,65.032379 82.675377,63.918255 
	C83.041603,60.567665 83.856102,58.207260 87.568657,57.462494 
	C88.410103,57.293694 88.877335,55.681664 89.708237,54.951897 
	C91.546783,53.337124 93.284523,51.217247 95.464455,50.463821 
	C99.822212,48.957676 105.410660,49.822987 106.709984,43.444248 
	C106.787247,43.064949 107.414368,42.538445 107.805382,42.520889 
	C114.384605,42.225506 115.757111,34.780922 121.526108,32.904152 
	C128.884949,33.444904 128.966156,34.961830 128.984009,26.101063 
	C128.984665,25.773485 128.940460,25.445820 129.363770,25.082376 
	C132.159515,24.398834 136.580399,23.604725 136.546539,23.125383 
	C136.051453,16.119013 140.594223,16.808456 145.063904,17.441040 
	C149.282013,21.994160 156.455948,21.187618 160.994751,15.549305 
	C160.247070,10.412337 162.012558,8.379917 166.954834,8.928592 
	C170.238861,9.293178 173.595993,9.000749 176.920395,9.000026 
	C184.908127,8.998289 184.908127,8.997724 185.000000,1.000000 
	C229.354233,1.000000 273.708466,1.000000 318.564575,1.429033 
	C319.404755,4.785026 318.018616,8.998294 322.272980,9.588230 
	C326.409698,10.161852 330.750214,9.265490 335.373962,9.018347 
	C336.492065,9.021536 337.237488,9.020984 338.161743,9.302378 
	C340.550171,10.731650 342.759735,11.878977 344.974670,13.268922 
	C344.980042,13.511540 345.006012,13.996204 344.948669,14.353305 
	C345.403839,16.076700 346.014923,18.643032 346.412567,18.610373 
	C348.637390,18.427645 350.810638,17.617039 353.442993,17.025198 
	C356.288940,17.678539 360.638397,15.304485 360.680054,19.547108 
	C360.734741,25.115746 363.586884,25.315994 367.617279,25.051247 
	C369.772400,24.909685 372.005554,24.766186 374.087463,25.191494 
	C375.165497,25.411722 376.819305,26.895634 376.792450,27.764694 
	C376.643799,32.569077 379.360138,33.032696 383.209076,33.042339 
	C386.078278,33.049526 390.554077,33.096378 391.483887,34.733337 
	C393.530670,38.336727 394.741760,41.797592 399.753357,41.538227 
	C400.121246,41.519196 400.936401,43.113182 400.919830,43.944820 
	C400.857147,47.088745 401.872894,48.869919 405.322968,49.330318 
	C406.590149,49.499416 408.492462,51.223484 408.631134,52.410454 
	C409.153198,56.879051 411.988892,57.174786 415.422363,57.036808 
	C417.583954,56.949947 419.803802,56.766582 421.897491,57.159492 
	C423.016083,57.369419 424.791962,58.727623 424.775421,59.536983 
	C424.700592,63.193970 426.235046,65.012764 429.758667,65.713745 
	C430.715820,65.904160 431.920441,67.070946 432.209747,68.031166 
	C433.864471,73.523041 442.347382,73.143250 442.414307,79.983818 
	C442.417236,80.283318 443.848175,80.824852 444.610016,80.818016 
	C448.592377,80.782349 449.216492,83.217705 449.043640,86.439209 
	C448.936676,88.432632 449.084412,90.438889 449.003235,92.434731 
	C448.891968,95.169205 449.895905,96.530785 452.779938,97.273506 
	C454.403687,97.691658 456.358185,99.762047 456.736328,101.414703 
	C457.353424,104.111687 458.530762,105.169571 461.071686,105.072945 
	C464.202209,104.953880 465.055847,106.696472 464.981689,109.486610 
	C464.881897,113.241737 464.956970,117.001503 464.956970,120.875580 
	C473.919800,119.644714 473.561493,130.771027 480.719269,131.198990 
	C480.877747,131.208496 480.984955,133.372864 480.983643,134.531891 
	C480.978119,139.362106 480.688293,144.208939 481.030853,149.011993 
	C481.129700,150.398239 482.924683,152.712830 484.060577,152.786987 
	C488.119934,153.052048 489.179871,155.122025 489.012054,158.675995 
	C488.910095,160.834885 488.594635,163.149277 489.223907,165.123215 
	C489.703522,166.627518 491.447662,168.694321 492.751312,168.786606 
	C496.453156,169.048706 497.080475,170.914871 497.026428,174.022903 
	C496.904816,181.017685 497.019104,188.016220 496.956024,195.012512 
	C496.929047,198.004089 497.796143,200.256134 501.000000,201.000000 
M318.472351,384.031769 
	C318.472351,384.031769 318.957947,384.064728 319.499420,384.445007 
	C324.896088,387.265747 330.266541,390.138275 335.700287,392.885651 
	C338.472290,394.287231 341.312714,396.436249 344.200012,396.570221 
	C355.217957,397.081573 366.267548,396.902771 377.305206,396.997101 
	C391.681580,397.119904 387.763031,396.990417 389.816467,385.513123 
	C390.726532,380.426422 388.190674,377.691101 383.024811,378.215118 
	C376.103027,378.917236 371.159149,374.612396 365.478516,372.208557 
	C360.284882,370.010773 355.276459,367.375305 350.062164,364.927155 
	C350.062164,364.927155 350.068359,364.802948 350.012054,364.077606 
	C346.184509,357.141815 342.882690,349.837738 338.363220,343.386719 
	C334.742218,338.218170 329.742706,333.980774 325.127106,329.568573 
	C324.009857,328.500549 321.993744,328.372894 320.185364,327.746277 
	C320.185364,327.746277 320.181427,327.530212 320.385162,326.825745 
	C319.114166,318.127533 316.111206,310.678986 309.109924,304.481781 
	C303.366852,299.398254 298.649170,292.869812 294.574249,286.301178 
	C292.318024,282.664276 290.292053,280.236450 285.550842,279.634125 
	C285.278229,279.097809 285.005615,278.561493 284.786743,277.870972 
	C284.786743,277.870972 284.425537,277.678345 284.278259,277.630493 
	C284.278259,277.630493 284.319427,277.481201 284.551788,276.643188 
	C284.863983,271.021301 278.610291,262.333374 272.972992,260.699005 
	C272.972992,260.699005 272.878723,260.249969 272.923920,259.383118 
	C272.929718,258.722748 273.067474,258.031281 272.920258,257.407013 
	C271.816254,252.725357 272.515442,249.331009 277.634735,247.049561 
	C279.451324,246.239975 279.914948,242.394501 281.353180,239.382980 
	C283.217804,238.214676 285.082428,237.046356 287.537231,236.254272 
	C288.175659,236.409897 288.844574,236.776093 289.447815,236.688721 
	C295.858917,235.760223 308.604828,220.834641 308.572968,214.310089 
	C308.570740,213.862549 308.163574,213.416977 308.031219,212.248520 
	C310.858521,202.938766 314.963684,193.803253 316.261536,184.284958 
	C319.505188,160.496078 312.504669,140.324554 291.535706,125.619659 
	C283.119690,121.417183 274.885406,116.775513 266.214874,113.188263 
	C261.528412,111.249352 256.096802,111.111603 250.565857,110.021759 
	C250.565857,110.021759 250.112640,109.960678 249.832626,109.386711 
	C249.227295,109.288254 248.621964,109.189804 247.380890,108.869537 
	C246.936920,108.877907 246.492966,108.886276 245.672806,108.640305 
	C245.119904,108.774643 244.566986,108.908981 243.360001,108.994553 
	C242.924316,108.961754 242.488647,108.928955 241.543839,108.193314 
	C232.682434,108.433662 223.821030,108.674011 214.040268,108.985336 
	C210.023834,109.047096 206.007385,109.108864 201.289612,108.954147 
	C200.805542,108.843071 200.321167,108.633484 199.837463,108.635040 
	C174.375778,108.716652 148.914093,108.804108 123.452667,108.941696 
	C121.814697,108.950554 119.799728,108.843491 118.627937,109.701920 
	C116.708130,111.108337 114.279579,113.154144 114.073853,115.138474 
	C113.913391,116.686234 116.507576,119.495598 118.396729,120.087463 
	C123.102425,121.561729 128.104279,122.090668 133.571579,123.406754 
	C136.380402,124.981171 139.189224,126.555588 142.059769,128.887695 
	C143.269455,129.880829 144.479156,130.873962 146.041275,132.123077 
	C146.041275,132.123077 146.164307,132.540909 145.582825,132.997971 
	C145.673706,134.428497 145.285294,136.164932 145.960358,137.222610 
	C147.174179,139.124405 149.026016,140.619003 150.796600,142.456665 
	C150.796600,142.456665 150.716583,142.697174 150.148224,143.364365 
	C149.841156,146.116028 149.284592,148.866837 149.275375,151.619507 
	C149.250946,158.909668 149.711166,166.207260 149.516312,173.489532 
	C149.291672,181.884613 148.565384,190.266068 148.079727,198.654770 
	C148.041641,199.312607 148.210434,199.979736 148.235687,200.644333 
	C148.807663,215.690979 149.762878,230.735855 149.841278,245.785248 
	C149.940079,264.755096 149.351669,283.729218 148.992249,302.700256 
	C148.902496,307.437683 147.554443,312.387634 148.527557,316.860779 
	C150.717041,326.925323 147.827225,336.820099 148.655029,346.762848 
	C148.984741,350.722809 149.439545,354.672394 149.957886,359.313416 
	C149.921539,359.542969 149.885193,359.772522 149.750992,360.243073 
	C149.687927,360.503204 149.721161,360.753052 149.953247,361.697113 
	C149.545151,362.800018 149.137054,363.902954 148.209030,365.186829 
	C147.821609,366.126953 147.434204,367.067108 146.912796,368.684967 
	C143.725861,374.163055 139.351837,377.702698 132.701797,378.137909 
	C130.104538,378.307892 127.491768,379.140625 125.012299,380.025330 
	C119.698990,381.921234 118.541878,384.119659 118.774368,390.162079 
	C116.869987,393.667877 118.115776,396.368073 122.313179,396.775879 
	C125.906822,397.125061 129.573044,396.711639 133.207520,396.660370 
	C137.945999,396.593506 142.717804,396.883423 147.415482,396.417358 
	C153.813248,395.782623 160.869339,397.316711 166.832932,391.397614 
	C168.553406,391.427551 170.273895,391.457489 172.308258,391.913116 
	C173.228165,391.875885 174.148087,391.838654 175.903732,391.609863 
	C177.604019,391.744385 179.304321,391.878876 181.286865,392.639282 
	C186.173538,397.698212 192.667023,395.888763 198.459427,396.259949 
	C208.267075,396.888428 218.242783,395.268982 227.794006,398.923523 
	C228.613754,399.237213 229.894424,399.282562 230.578979,398.849152 
	C233.356552,397.090637 236.330276,395.420166 238.536850,393.066040 
	C239.827896,391.688660 240.920624,388.335785 240.147293,387.181000 
	C238.472443,384.679962 235.836563,382.018646 233.068237,381.200226 
	C223.727432,378.438660 214.093399,376.681549 204.705765,374.059509 
	C200.976898,373.018005 197.599533,370.718048 193.445312,368.721802 
	C192.233398,366.626740 191.021484,364.531677 189.846313,361.552032 
	C189.564133,351.723022 189.472870,341.882172 188.863968,332.073425 
	C188.714035,329.658112 186.877747,327.347473 185.521011,324.092834 
	C185.471664,309.821960 185.246414,295.548615 185.449860,281.281342 
	C185.546280,274.520233 186.461945,267.770782 187.685989,260.642548 
	C189.722656,260.123688 191.751175,259.198303 193.797440,259.157257 
	C202.101868,258.990662 210.449402,259.590210 218.709000,258.961151 
	C226.938828,258.334351 232.957184,261.645538 237.710342,267.657867 
	C242.950928,274.286743 247.986588,281.108429 252.667068,288.141876 
	C259.271362,298.066284 265.467468,308.262329 272.004211,319.003937 
	C272.981293,320.807678 273.958374,322.611389 274.506104,324.894440 
	C274.719543,326.092133 274.604858,327.494446 275.202484,328.452515 
	C277.980438,332.906158 280.783844,337.366455 283.941864,341.549774 
	C285.267242,343.305450 287.492859,344.381531 289.237366,345.784027 
	C289.237366,345.784027 289.250824,345.711304 289.185883,346.497253 
	C290.514221,348.297852 291.842560,350.098450 293.102509,351.899261 
	C293.102509,351.899261 293.117737,351.832642 293.072021,352.702362 
	C293.031525,361.693420 299.338226,368.941132 308.373932,370.601562 
	C308.373932,370.601562 308.555389,370.503632 308.476746,371.059967 
	C309.062836,371.563568 309.648956,372.067169 310.667755,372.761139 
	C310.931427,372.962952 311.091827,373.227417 311.059723,374.270813 
	C311.034271,374.509583 311.008820,374.748352 310.391541,375.337433 
	C308.483154,379.754944 309.107727,380.529877 315.179260,381.636749 
	C316.115021,382.425018 317.050781,383.213287 318.472351,384.031769 
z"/>
<path fill="#010101" opacity="1.000000" stroke="none" 
	d="
M472.489410,376.819946 
	C472.606842,376.129333 472.724274,375.438751 472.985901,374.051270 
	C474.423706,372.507874 475.656281,371.073547 477.023071,370.931519 
	C480.331451,370.587891 481.221466,368.870605 480.883667,365.952637 
	C480.921265,363.959930 481.082581,361.960205 480.970612,359.975952 
	C480.740173,355.892120 480.685150,352.205353 486.598755,352.728027 
	C487.283081,352.788513 488.789337,350.533295 488.862366,349.289917 
	C489.144409,344.487579 489.093597,339.657990 488.982391,334.842834 
	C488.903076,331.408722 489.589081,328.882324 493.755585,328.942566 
	C496.860199,328.987488 496.996643,326.781769 496.993195,324.474976 
	C496.982178,317.164948 496.791656,309.844086 497.160614,302.552277 
	C497.253632,300.714874 499.177185,298.970154 500.629761,297.091431 
	C501.000000,364.927032 501.000000,432.854034 501.000000,501.000000 
	C433.312592,501.000000 365.624969,501.000000 297.468658,501.000000 
	C297.279480,497.777924 299.359497,496.988434 302.195068,497.003540 
	C309.496796,497.042450 316.800079,496.923798 324.100403,497.029724 
	C327.151459,497.074005 329.438263,496.666656 329.008759,492.815674 
	C328.650330,489.602142 330.488617,488.917633 333.258575,488.974060 
	C338.401031,489.078766 343.548706,488.920654 348.691498,489.017059 
	C351.418793,489.068146 353.343719,488.475586 352.981873,485.221863 
	C352.559021,481.419342 354.748535,480.793457 357.850708,480.972107 
	C360.165863,481.105469 362.589294,481.369690 364.787415,480.840332 
	C366.341492,480.466064 368.514130,479.072937 368.815735,477.766479 
	C369.675995,474.040009 371.822357,473.094482 375.237335,472.970337 
	C378.401093,472.855316 381.544647,472.184784 384.817993,470.943970 
	C384.990814,468.427795 385.042786,466.726501 385.094757,465.025238 
	C389.037231,464.996094 393.588226,466.100861 393.415710,459.493011 
	C393.392944,458.620819 395.981201,457.680389 398.083252,456.705627 
	C400.110107,456.632080 401.413879,456.624481 402.717651,456.616882 
	C406.675232,457.786255 407.447418,455.714600 409.680023,452.532776 
	C412.622070,448.339966 415.014893,442.375488 421.213074,440.915619 
	C422.280090,440.664307 424.145660,439.955872 424.127808,439.520721 
	C423.844666,432.624023 433.202271,432.902802 433.592072,426.639801 
	C438.507385,425.431122 440.729218,421.720428 442.991760,417.555206 
	C444.430695,414.906250 447.446930,413.108826 449.777802,410.953278 
	C450.377625,410.398560 451.042969,409.519409 451.707581,409.491608 
	C457.881226,409.233246 457.080414,404.768250 456.973083,400.828461 
	C456.858337,396.615112 456.658020,392.757507 462.736450,392.520081 
	C463.585327,392.486908 464.271149,388.280518 465.499573,385.553925 
	C474.362122,384.911438 474.646362,384.550568 472.489410,376.819946 
z"/>
<path fill="#010101" opacity="1.000000" stroke="none" 
	d="
M501.000000,200.531342 
	C497.796143,200.256134 496.929047,198.004089 496.956024,195.012512 
	C497.019104,188.016220 496.904816,181.017685 497.026428,174.022903 
	C497.080475,170.914871 496.453156,169.048706 492.751312,168.786606 
	C491.447662,168.694321 489.703522,166.627518 489.223907,165.123215 
	C488.594635,163.149277 488.910095,160.834885 489.012054,158.675995 
	C489.179871,155.122025 488.119934,153.052048 484.060577,152.786987 
	C482.924683,152.712830 481.129700,150.398239 481.030853,149.011993 
	C480.688293,144.208939 480.978119,139.362106 480.983643,134.531891 
	C480.984955,133.372864 480.877747,131.208496 480.719269,131.198990 
	C473.561493,130.771027 473.919800,119.644714 464.956970,120.875580 
	C464.956970,117.001503 464.881897,113.241737 464.981689,109.486610 
	C465.055847,106.696472 464.202209,104.953880 461.071686,105.072945 
	C458.530762,105.169571 457.353424,104.111687 456.736328,101.414703 
	C456.358185,99.762047 454.403687,97.691658 452.779938,97.273506 
	C449.895905,96.530785 448.891968,95.169205 449.003235,92.434731 
	C449.084412,90.438889 448.936676,88.432632 449.043640,86.439209 
	C449.216492,83.217705 448.592377,80.782349 444.610016,80.818016 
	C443.848175,80.824852 442.417236,80.283318 442.414307,79.983818 
	C442.347382,73.143250 433.864471,73.523041 432.209747,68.031166 
	C431.920441,67.070946 430.715820,65.904160 429.758667,65.713745 
	C426.235046,65.012764 424.700592,63.193970 424.775421,59.536983 
	C424.791962,58.727623 423.016083,57.369419 421.897491,57.159492 
	C419.803802,56.766582 417.583954,56.949947 415.422363,57.036808 
	C411.988892,57.174786 409.153198,56.879051 408.631134,52.410454 
	C408.492462,51.223484 406.590149,49.499416 405.322968,49.330318 
	C401.872894,48.869919 400.857147,47.088745 400.919830,43.944820 
	C400.936401,43.113182 400.121246,41.519196 399.753357,41.538227 
	C394.741760,41.797592 393.530670,38.336727 391.483887,34.733337 
	C390.554077,33.096378 386.078278,33.049526 383.209076,33.042339 
	C379.360138,33.032696 376.643799,32.569077 376.792450,27.764694 
	C376.819305,26.895634 375.165497,25.411722 374.087463,25.191494 
	C372.005554,24.766186 369.772400,24.909685 367.617279,25.051247 
	C363.586884,25.315994 360.734741,25.115746 360.680054,19.547108 
	C360.638397,15.304485 356.288940,17.678539 353.271423,16.715546 
	C350.107605,15.599808 347.556793,14.798007 345.006012,13.996204 
	C345.006012,13.996204 344.980042,13.511540 345.005310,12.868767 
	C344.408569,7.360053 340.746368,9.178196 337.982910,9.020432 
	C337.237488,9.020984 336.492065,9.021536 335.014130,8.836838 
	C332.831726,8.457300 331.386536,8.147474 329.931183,8.088541 
	C323.295624,7.819840 323.128418,7.675714 323.000000,1.000000 
	C382.264587,1.000000 441.529205,1.000000 501.000000,1.000000 
	C501.000000,67.354088 501.000000,133.708389 501.000000,200.531342 
z"/>
<path fill="#010101" opacity="1.000000" stroke="none" 
	d="
M121.566971,465.833252 
	C120.593063,469.675018 120.650101,472.697418 125.846764,473.243256 
	C127.004944,473.364899 128.664597,475.555511 128.827682,476.942383 
	C129.216690,480.250916 130.925262,481.057983 133.828186,481.011017 
	C138.803329,480.930481 143.782700,481.082764 148.756760,480.974304 
	C151.540024,480.913605 153.335663,481.628632 152.994400,484.829041 
	C152.637985,488.171417 154.308472,489.255127 157.410828,489.016083 
	C159.224243,488.876343 161.064224,489.101715 162.881668,488.990173 
	C166.669800,488.757751 169.344879,489.447144 169.346893,494.225128 
	C169.347290,495.139832 172.055374,496.783112 173.563797,496.843048 
	C180.685730,497.125977 187.837830,496.739197 194.949661,497.129211 
	C196.974243,497.240265 198.899597,499.160553 200.935226,500.625580 
	C134.410156,501.000000 67.820312,501.000000 1.000000,501.000000 
	C1.000000,441.312622 1.000000,381.624969 1.000000,321.468658 
	C8.533339,321.375153 8.958222,321.800720 8.991599,329.098724 
	C9.006063,332.261536 9.105324,335.429199 8.969229,338.586151 
	C8.806568,342.359406 8.727198,345.720459 14.186438,345.294678 
	C15.009024,345.230499 16.545053,347.358154 16.811279,348.663605 
	C17.268614,350.906067 17.125757,353.308319 16.980219,355.627502 
	C16.760918,359.122223 17.397200,361.418274 21.757420,361.190979 
	C22.771727,361.138092 24.494204,363.078827 24.835339,364.379150 
	C25.367264,366.406708 25.084049,368.674744 24.989443,370.834015 
	C24.832994,374.404755 25.479639,377.002319 29.945919,377.242981 
	C31.022987,377.301025 32.484840,379.399536 32.872257,380.806763 
	C33.383965,382.665466 33.177963,384.783905 32.985920,386.762054 
	C32.497559,391.792358 36.234951,392.320404 39.631767,393.865448 
	C42.462559,395.153046 39.426025,401.909180 45.710682,401.162109 
	C46.649467,401.050507 48.597343,403.102661 48.790562,404.352905 
	C49.200432,407.004944 49.856762,408.831421 52.871788,408.935486 
	C56.106022,409.047028 57.107182,411.039551 57.044327,413.942474 
	C57.001091,415.939148 57.224171,417.959961 56.991821,419.930328 
	C56.524212,423.895782 58.238140,425.463501 62.506824,425.517334 
	C63.171978,434.291168 63.748890,434.820770 72.890991,435.494507 
	C73.066338,437.481262 73.198967,439.041565 73.378342,441.151733 
	C76.153938,441.151733 78.563179,441.151733 80.972412,441.151733 
	C80.967415,449.005310 80.978630,448.764160 88.822891,449.128937 
	C91.716843,449.263519 96.130394,446.641022 97.037064,452.684998 
	C94.313499,456.265594 96.642181,456.767090 98.989983,457.105530 
	C102.200752,457.568390 104.660500,458.575012 105.131813,462.416290 
	C105.250702,463.385193 106.958870,464.475037 108.156212,464.924347 
	C110.130417,465.665192 112.288795,466.311035 114.359505,466.281952 
	C116.240669,466.255554 118.108459,465.276459 119.982147,464.717407 
	C120.198593,464.760742 120.415024,464.804108 121.012192,465.126831 
	C121.392929,465.406189 121.566971,465.833252 121.566971,465.833252 
z"/>
<path fill="#010101" opacity="1.000000" stroke="none" 
	d="
M184.531342,1.000000 
	C184.908127,8.997724 184.908127,8.998289 176.920395,9.000026 
	C173.595993,9.000749 170.238861,9.293178 166.954834,8.928592 
	C162.012558,8.379917 160.247070,10.412337 160.565308,15.596580 
	C157.997406,15.804888 155.828827,15.152606 153.735413,15.340028 
	C150.794708,15.603308 147.909821,16.490343 145.001068,17.110607 
	C140.594223,16.808456 136.051453,16.119013 136.546539,23.125383 
	C136.580399,23.604725 132.159515,24.398834 128.926193,25.028891 
	C125.804947,25.011223 123.567879,25.011223 121.217918,25.011223 
	C121.069801,27.392580 120.959198,29.170694 120.428284,30.968382 
	C116.562729,31.116472 112.113876,30.440369 111.456093,34.950546 
	C110.735313,39.892567 108.015381,40.188271 104.218483,40.110214 
	C100.527237,40.034328 97.954727,41.029396 95.195404,44.536842 
	C92.501427,47.961227 87.816109,49.808083 86.755547,54.914543 
	C86.623985,55.547977 84.323380,55.565571 83.222115,56.203758 
	C81.762238,57.049767 80.067574,57.959194 79.222458,59.309811 
	C76.665482,63.396194 71.078392,65.286057 70.739693,71.009689 
	C70.718529,71.367416 69.343903,71.867523 68.573174,71.919571 
	C65.396614,72.134048 64.372437,74.633980 62.411289,76.498970 
	C59.072353,79.674187 56.038521,82.591408 54.718643,87.071259 
	C54.622448,87.397766 53.882904,87.740639 53.450058,87.731117 
	C47.125858,87.592018 46.746418,92.392822 45.862064,96.783249 
	C45.862064,96.783249 45.877338,96.954140 45.521332,96.978638 
	C38.819275,96.419579 41.525536,101.094833 41.121849,103.963409 
	C41.219288,108.361824 41.187599,112.411522 35.729317,114.257729 
	C34.322186,114.733673 33.889759,118.091309 32.551933,120.499237 
	C24.800865,121.157700 24.800608,121.157707 25.103399,128.477203 
	C25.110083,128.638763 25.142138,128.799286 25.162357,128.960281 
	C25.098808,130.617615 25.392467,132.402649 24.859873,133.892288 
	C24.425625,135.106857 22.933617,136.899368 22.030697,136.831772 
	C16.983515,136.453903 16.682606,139.393707 16.887327,143.829697 
	C16.168247,146.252655 15.333019,147.906219 15.205610,149.612610 
	C14.924702,153.374817 15.000696,157.163681 14.931056,160.941666 
	C10.071889,160.241882 8.454570,162.406036 8.937178,167.135208 
	C9.306156,170.750885 9.027966,174.434326 9.009419,178.087479 
	C8.975922,184.685791 8.734365,184.911514 1.433392,185.009720 
	C1.000000,123.739639 1.000000,62.479286 1.000000,1.000000 
	C62.020721,1.000000 123.041702,1.000000 184.531342,1.000000 
z"/>
<path fill="#212121" opacity="1.000000" stroke="none" 
	d="
M322.600006,1.000000 
	C323.128418,7.675714 323.295624,7.819840 329.931183,8.088541 
	C331.386536,8.147474 332.831726,8.457300 334.641418,8.833096 
	C330.750214,9.265490 326.409698,10.161852 322.272980,9.588230 
	C318.018616,8.998294 319.404755,4.785026 319.033234,1.429033 
	C320.066681,1.000000 321.133331,1.000000 322.600006,1.000000 
z"/>
<path fill="#C9EEC8" opacity="1.000000" stroke="none" 
	d="
M286.947052,235.878052 
	C285.082428,237.046356 283.217804,238.214676 280.836212,239.745483 
	C278.919373,241.007523 277.509857,241.892487 276.121124,242.808960 
	C265.797791,249.621658 265.799072,249.623627 272.878723,260.249969 
	C272.878723,260.249969 272.972992,260.699005 273.249634,261.164917 
	C277.123993,266.914276 280.721710,272.197723 284.319427,277.481201 
	C284.319427,277.481201 284.278259,277.630493 284.376617,277.787292 
	C284.474976,277.944092 284.733002,278.025177 284.733002,278.025177 
	C285.005615,278.561493 285.278229,279.097809 285.878052,280.144196 
	C297.530640,296.279572 308.856018,311.904907 320.181427,327.530212 
	C320.181427,327.530212 320.185364,327.746277 320.429169,328.072815 
	C330.471436,340.533905 340.269897,352.668427 350.068359,364.802948 
	C350.068359,364.802948 350.062164,364.927155 350.192200,365.166077 
	C350.593781,365.807434 350.865295,366.209869 351.052307,366.978760 
	C349.816864,370.342896 351.087067,371.635193 353.917023,372.881592 
	C357.792938,374.588654 361.881317,376.538574 364.817932,379.453094 
	C367.870300,382.482483 370.731537,383.658813 374.880157,383.205719 
	C381.141602,382.521912 384.370819,384.480072 386.730713,389.838196 
	C386.686310,389.976868 386.406403,390.057190 385.876190,389.898010 
	C379.413483,389.229462 373.233978,387.415375 367.599854,388.482056 
	C355.836700,390.709076 344.581268,388.768372 333.266022,386.583496 
	C330.705353,386.089050 328.041962,384.268005 326.203339,382.322723 
	C323.340515,379.293945 317.713104,378.303192 318.351471,372.405853 
	C318.400940,371.948853 317.121796,371.407532 316.556488,370.813782 
	C314.541138,368.697144 312.487762,366.608643 310.594391,364.385468 
	C306.665924,359.772766 303.582031,353.958405 298.753265,350.725708 
	C293.563568,347.251343 291.099243,342.498199 288.268341,337.665009 
	C285.295746,332.589996 285.564575,324.398163 276.236328,325.628418 
	C276.190125,325.609558 276.225952,325.516418 276.358276,325.087708 
	C277.184631,318.591248 276.296204,317.385040 271.838074,318.342255 
	C265.467468,308.262329 259.271362,298.066284 252.667068,288.141876 
	C247.986588,281.108429 242.950928,274.286743 237.710342,267.657867 
	C232.957184,261.645538 226.938828,258.334351 218.709000,258.961151 
	C210.449402,259.590210 202.101868,258.990662 193.797440,259.157257 
	C191.751175,259.198303 189.722656,260.123688 186.962997,260.867126 
	C183.169037,261.407837 181.912308,263.267761 182.030609,266.180023 
	C182.587555,279.891022 183.206314,293.599670 183.724457,307.312103 
	C183.868103,311.113739 183.916168,314.935303 183.704041,318.730743 
	C183.243408,326.972687 181.935745,335.229889 182.265564,343.428894 
	C182.449799,348.008728 185.220215,352.484558 186.983612,357.316101 
	C187.753845,359.085205 188.365738,360.545410 188.855804,362.304260 
	C189.062347,369.078583 191.336792,371.786774 197.236969,372.779358 
	C197.201920,372.789551 197.210693,372.717102 197.266296,373.082886 
	C199.034454,374.395691 200.747025,375.342712 202.546890,376.261658 
	C202.634186,376.233612 202.712967,376.399231 202.698486,376.764221 
	C203.935333,378.255493 205.074417,380.158997 206.459518,380.359039 
	C210.268799,380.909210 214.181229,380.745117 218.419800,380.908264 
	C219.522308,380.953613 220.257874,380.954407 221.146332,381.258667 
	C223.050644,382.849915 224.802048,384.137665 226.817841,385.619843 
	C225.878922,386.445404 225.425659,387.198578 224.920456,387.235229 
	C216.741730,387.828247 208.562057,388.535095 200.370041,388.761383 
	C196.607773,388.865265 192.815384,387.594696 189.041794,387.623505 
	C176.493362,387.719269 163.939957,388.440582 151.406082,388.153473 
	C148.705292,388.091583 145.485672,385.243713 143.722748,382.800537 
	C143.062546,381.885529 145.437988,378.034424 147.188400,376.278839 
	C150.986877,372.469147 153.327011,362.911041 151.159485,357.252655 
	C151.435043,355.679962 151.753494,354.338043 152.368805,352.809631 
	C153.773361,347.680511 155.810898,342.743713 155.842148,337.794312 
	C156.100922,296.812317 155.989151,255.828018 155.988113,214.844421 
	C155.987656,197.018219 156.002945,179.191986 155.964737,161.365860 
	C155.957611,158.043655 156.194138,154.508270 152.064697,152.582672 
	C151.570023,149.011826 151.143295,145.854507 150.716583,142.697174 
	C150.716583,142.697174 150.796600,142.456665 150.659363,141.952606 
	C149.069519,138.479324 147.616913,135.510117 146.164307,132.540909 
	C146.164307,132.540909 146.041275,132.123077 145.720215,131.686829 
	C144.265457,130.210388 143.131760,129.170197 141.998047,128.130005 
	C139.189224,126.555588 136.380402,124.981171 133.372894,122.876564 
	C135.461990,118.293388 133.726944,117.028938 129.665482,116.955353 
	C127.323616,116.912918 124.991814,116.315392 122.655479,115.967712 
	C122.647087,115.219574 122.638695,114.471436 122.630302,113.723297 
	C126.575645,112.891777 130.510971,111.418587 134.468323,111.356888 
	C143.884872,111.210083 153.313187,111.972595 162.734238,111.919411 
	C174.033966,111.855629 185.334167,111.399643 196.626144,110.923683 
	C198.435837,110.847404 200.203735,109.779915 201.990952,109.170639 
	C206.007385,109.108864 210.023834,109.047096 214.856705,109.150177 
	C223.866638,109.447060 232.059967,109.596680 240.253983,109.674812 
	C240.851105,109.680511 241.453186,109.167824 242.052963,108.896156 
	C242.488647,108.928955 242.924316,108.961754 243.884674,109.123352 
	C244.955902,109.132980 245.502441,109.013809 246.048996,108.894638 
	C246.492966,108.886276 246.936920,108.877907 247.940338,109.133858 
	C249.037415,109.585678 249.575027,109.773178 250.112640,109.960678 
	C250.112640,109.960678 250.565857,110.021759 250.947754,110.400581 
	C252.906448,111.523285 254.459610,112.323288 256.065186,112.998688 
	C258.917908,114.198715 261.785889,115.366409 264.677948,116.467735 
	C267.856293,117.678085 271.009033,119.494453 274.282318,119.776169 
	C278.114746,120.106026 280.683472,121.245430 282.822784,124.503235 
	C285.052704,127.898994 288.196747,129.480698 291.937958,126.172455 
	C312.504669,140.324554 319.505188,160.496078 316.261536,184.284958 
	C314.963684,193.803253 310.858521,202.938766 307.726379,212.822815 
	C302.561768,222.680405 295.400116,229.867310 286.947052,235.878052 
M189.958389,129.940903 
	C189.958389,129.940903 189.914108,129.879395 189.317993,130.313370 
	C188.521896,132.980011 187.108475,135.628189 187.028061,138.316254 
	C186.423370,158.532150 186.081207,178.755920 185.413818,199.763992 
	C185.494858,200.848465 185.575912,201.932953 185.416245,203.922134 
	C185.622131,213.548981 185.751114,223.178375 186.067535,232.801590 
	C186.217438,237.360199 187.286530,241.493698 193.539856,242.633072 
	C208.808395,242.676208 224.115082,243.388855 239.331818,242.522354 
	C249.145737,241.963501 258.648865,238.341217 266.109070,231.455246 
	C282.650940,216.186630 287.057098,196.639679 282.004669,175.716293 
	C274.082214,142.907516 248.022552,124.849586 212.135757,124.018204 
	C210.434219,124.054504 208.732697,124.090805 206.278976,123.993790 
	C205.520874,124.053230 204.762756,124.112671 203.186462,124.048172 
	C198.177063,124.704178 192.943253,124.852158 189.958389,129.940903 
z"/>
<path fill="#CBE9CB" opacity="1.000000" stroke="none" 
	d="
M151.202377,357.483429 
	C153.327011,362.911041 150.986877,372.469147 147.188400,376.278839 
	C145.437988,378.034424 143.062546,381.885529 143.722748,382.800537 
	C145.485672,385.243713 148.705292,388.091583 151.406082,388.153473 
	C163.939957,388.440582 176.493362,387.719269 189.041794,387.623505 
	C192.815384,387.594696 196.607773,388.865265 200.370041,388.761383 
	C208.562057,388.535095 216.741730,387.828247 224.920456,387.235229 
	C225.425659,387.198578 225.878922,386.445404 226.817841,385.619843 
	C224.802048,384.137665 223.050644,382.849915 221.555023,381.205017 
	C224.697708,381.573517 227.868118,381.792450 230.375809,383.195740 
	C232.166107,384.197510 234.344528,387.035217 234.041870,388.610168 
	C233.659714,390.598816 231.190094,392.633362 229.130356,393.706940 
	C227.567230,394.521729 225.234360,393.936279 223.249130,393.852325 
	C209.166870,393.256897 195.085953,392.630157 181.004608,392.013397 
	C179.304321,391.878876 177.604019,391.744385 175.207703,391.550385 
	C173.672577,391.489746 172.833481,391.488586 171.994370,391.487427 
	C170.273895,391.457489 168.553406,391.427551 166.016495,391.424835 
	C152.968750,391.890594 140.738846,392.537445 128.505142,392.619843 
	C125.479546,392.640228 122.441605,390.828033 119.409340,389.858246 
	C118.541878,384.119659 119.698990,381.921234 125.012299,380.025330 
	C127.491768,379.140625 130.104538,378.307892 132.701797,378.137909 
	C139.351837,377.702698 143.725861,374.163055 147.223038,368.179016 
	C147.931839,366.784027 148.330399,365.894928 148.728943,365.005859 
	C149.137054,363.902954 149.545151,362.800018 149.957016,361.097046 
	C149.923462,360.332001 149.886154,360.167023 149.848862,360.002045 
	C149.885193,359.772522 149.921539,359.542969 150.105713,358.757233 
	C150.569824,357.961853 150.886108,357.722626 151.202377,357.483429 
z"/>
<path fill="#3E4A3D" opacity="1.000000" stroke="none" 
	d="
M151.159485,357.252655 
	C150.886108,357.722626 150.569824,357.961853 150.045471,358.413879 
	C149.439545,354.672394 148.984741,350.722809 148.655029,346.762848 
	C147.827225,336.820099 150.717041,326.925323 148.527557,316.860779 
	C147.554443,312.387634 148.902496,307.437683 148.992249,302.700256 
	C149.351669,283.729218 149.940079,264.755096 149.841278,245.785248 
	C149.762878,230.735855 148.807663,215.690979 148.235687,200.644333 
	C148.210434,199.979736 148.041641,199.312607 148.079727,198.654770 
	C148.565384,190.266068 149.291672,181.884613 149.516312,173.489532 
	C149.711166,166.207260 149.250946,158.909668 149.275375,151.619507 
	C149.284592,148.866837 149.841156,146.116028 150.432404,143.030762 
	C151.143295,145.854507 151.570023,149.011826 151.996613,153.047104 
	C152.095444,180.535172 152.275085,207.145279 152.274490,233.755402 
	C152.273605,273.502319 152.145782,313.249207 152.071960,352.996124 
	C151.753494,354.338043 151.435043,355.679962 151.159485,357.252655 
z"/>
<path fill="#CDEBCD" opacity="1.000000" stroke="none" 
	d="
M276.282501,325.647247 
	C285.564575,324.398163 285.295746,332.589996 288.268341,337.665009 
	C291.099243,342.498199 293.563568,347.251343 298.753265,350.725708 
	C303.582031,353.958405 306.665924,359.772766 310.594391,364.385468 
	C312.487762,366.608643 314.541138,368.697144 316.556488,370.813782 
	C317.121796,371.407532 318.400940,371.948853 318.351471,372.405853 
	C317.713104,378.303192 323.340515,379.293945 326.203339,382.322723 
	C328.041962,384.268005 330.705353,386.089050 333.266022,386.583496 
	C344.581268,388.768372 355.836700,390.709076 367.599854,388.482056 
	C373.233978,387.415375 379.413483,389.229462 385.667175,390.213989 
	C384.058502,391.519470 382.153778,392.995605 380.194489,393.071960 
	C369.958801,393.470886 359.674500,394.109009 349.474457,393.512482 
	C339.487549,392.928406 330.360077,388.868622 321.719910,383.183685 
	C320.445587,382.170258 319.385223,381.409424 318.162445,380.794617 
	C318.000031,380.940643 318.332306,380.659393 318.171265,380.376221 
	C317.006866,379.265594 316.003479,378.438110 314.902740,377.350220 
	C313.989319,376.346924 313.173309,375.604004 312.243042,374.572449 
	C311.802185,374.040741 311.475555,373.797638 311.148926,373.554535 
	C311.091827,373.227417 310.931427,372.962952 310.349792,372.415527 
	C309.539673,371.547852 309.047516,371.025726 308.555389,370.503632 
	C308.555389,370.503632 308.373932,370.601562 308.282776,370.246582 
	C303.166992,363.871918 298.142365,357.852295 293.117737,351.832642 
	C293.117737,351.832642 293.102509,351.899261 293.098389,351.553741 
	C291.813110,349.375916 290.531952,347.543610 289.250824,345.711304 
	C289.250824,345.711304 289.237366,345.784027 289.157410,345.450378 
	C284.812500,338.626892 280.547485,332.137054 276.282501,325.647247 
z"/>
<path fill="#212121" opacity="1.000000" stroke="none" 
	d="
M46.242874,96.781998 
	C46.746418,92.392822 47.125858,87.592018 53.450058,87.731117 
	C53.882904,87.740639 54.622448,87.397766 54.718643,87.071259 
	C56.038521,82.591408 59.072353,79.674187 62.411289,76.498970 
	C64.372437,74.633980 65.396614,72.134048 68.573174,71.919571 
	C69.343903,71.867523 70.718529,71.367416 70.739693,71.009689 
	C71.078392,65.286057 76.665482,63.396194 79.222458,59.309811 
	C80.067574,57.959194 81.762238,57.049767 83.222115,56.203758 
	C84.323380,55.565571 86.623985,55.547977 86.755547,54.914543 
	C87.816109,49.808083 92.501427,47.961227 95.195404,44.536842 
	C97.954727,41.029396 100.527237,40.034328 104.218483,40.110214 
	C108.015381,40.188271 110.735313,39.892567 111.456093,34.950546 
	C112.113876,30.440369 116.562729,31.116472 120.507080,31.282246 
	C121.047417,32.005989 121.088654,32.435444 121.129883,32.864899 
	C115.757111,34.780922 114.384605,42.225506 107.805382,42.520889 
	C107.414368,42.538445 106.787247,43.064949 106.709984,43.444248 
	C105.410660,49.822987 99.822212,48.957676 95.464455,50.463821 
	C93.284523,51.217247 91.546783,53.337124 89.708237,54.951897 
	C88.877335,55.681664 88.410103,57.293694 87.568657,57.462494 
	C83.856102,58.207260 83.041603,60.567665 82.675377,63.918255 
	C82.553596,65.032379 80.240303,65.909164 78.925713,66.890175 
	C77.109947,68.245186 75.231094,69.524673 73.499504,70.979614 
	C72.658989,71.685860 72.222633,73.311661 71.377975,73.497612 
	C67.933136,74.255989 66.910126,76.417465 66.761360,79.619873 
	C66.716263,80.590805 65.545563,82.391197 65.093414,82.329285 
	C58.255383,81.392906 57.724106,89.564461 52.323975,91.039665 
	C50.123283,91.640846 50.919262,97.062668 46.242874,96.781998 
z"/>
<path fill="#424C42" opacity="1.000000" stroke="none" 
	d="
M181.145737,392.326355 
	C195.085953,392.630157 209.166870,393.256897 223.249130,393.852325 
	C225.234360,393.936279 227.567230,394.521729 229.130356,393.706940 
	C231.190094,392.633362 233.659714,390.598816 234.041870,388.610168 
	C234.344528,387.035217 232.166107,384.197510 230.375809,383.195740 
	C227.868118,381.792450 224.697708,381.573517 221.402115,380.901550 
	C220.257874,380.954407 219.522308,380.953613 218.202988,380.568329 
	C212.650482,378.922272 207.681717,377.660767 202.712967,376.399231 
	C202.712967,376.399231 202.634186,376.233612 202.312149,376.055420 
	C200.396973,374.823822 198.803833,373.770477 197.210693,372.717102 
	C197.210693,372.717102 197.201920,372.789551 197.090073,372.502380 
	C196.006210,371.140472 195.034180,370.065765 194.062149,368.991028 
	C197.599533,370.718048 200.976898,373.018005 204.705765,374.059509 
	C214.093399,376.681549 223.727432,378.438660 233.068237,381.200226 
	C235.836563,382.018646 238.472443,384.679962 240.147293,387.181000 
	C240.920624,388.335785 239.827896,391.688660 238.536850,393.066040 
	C236.330276,395.420166 233.356552,397.090637 230.578979,398.849152 
	C229.894424,399.282562 228.613754,399.237213 227.794006,398.923523 
	C218.242783,395.268982 208.267075,396.888428 198.459427,396.259949 
	C192.667023,395.888763 186.173538,397.698212 181.145737,392.326355 
z"/>
<path fill="#414C3F" opacity="1.000000" stroke="none" 
	d="
M321.933868,383.436310 
	C330.360077,388.868622 339.487549,392.928406 349.474457,393.512482 
	C359.674500,394.109009 369.958801,393.470886 380.194489,393.071960 
	C382.153778,392.995605 384.058502,391.519470 386.197388,390.373169 
	C386.406403,390.057190 386.686310,389.976868 386.983032,389.540497 
	C389.287933,382.373016 388.396729,379.956482 383.007538,379.846497 
	C370.570129,379.592682 360.213409,374.746307 351.136810,366.612274 
	C350.865295,366.209869 350.593781,365.807434 350.254333,365.168823 
	C355.276459,367.375305 360.284882,370.010773 365.478516,372.208557 
	C371.159149,374.612396 376.103027,378.917236 383.024811,378.215118 
	C388.190674,377.691101 390.726532,380.426422 389.816467,385.513123 
	C387.763031,396.990417 391.681580,397.119904 377.305206,396.997101 
	C366.267548,396.902771 355.217957,397.081573 344.200012,396.570221 
	C341.312714,396.436249 338.472290,394.287231 335.700287,392.885651 
	C330.266541,390.138275 324.896088,387.265747 319.727478,384.160889 
	C320.614990,383.729950 321.274445,383.583130 321.933868,383.436310 
z"/>
<path fill="#CDEDCD" opacity="1.000000" stroke="none" 
	d="
M201.640289,109.062393 
	C200.203735,109.779915 198.435837,110.847404 196.626144,110.923683 
	C185.334167,111.399643 174.033966,111.855629 162.734238,111.919411 
	C153.313187,111.972595 143.884872,111.210083 134.468323,111.356888 
	C130.510971,111.418587 126.575645,112.891777 122.630302,113.723297 
	C122.638695,114.471436 122.647087,115.219574 122.655479,115.967712 
	C124.991814,116.315392 127.323616,116.912918 129.665482,116.955353 
	C133.726944,117.028938 135.461990,118.293388 133.080719,122.672745 
	C128.104279,122.090668 123.102425,121.561729 118.396729,120.087463 
	C116.507576,119.495598 113.913391,116.686234 114.073853,115.138474 
	C114.279579,113.154144 116.708130,111.108337 118.627937,109.701920 
	C119.799728,108.843491 121.814697,108.950554 123.452667,108.941696 
	C148.914093,108.804108 174.375778,108.716652 199.837463,108.635040 
	C200.321167,108.633484 200.805542,108.843071 201.640289,109.062393 
z"/>
<path fill="#CDE8CB" opacity="1.000000" stroke="none" 
	d="
M186.825256,357.007233 
	C185.220215,352.484558 182.449799,348.008728 182.265564,343.428894 
	C181.935745,335.229889 183.243408,326.972687 183.704041,318.730743 
	C183.916168,314.935303 183.868103,311.113739 183.724457,307.312103 
	C183.206314,293.599670 182.587555,279.891022 182.030609,266.180023 
	C181.912308,263.267761 183.169037,261.407837 186.623230,261.053864 
	C186.461945,267.770782 185.546280,274.520233 185.449860,281.281342 
	C185.246414,295.548615 185.471664,309.821960 185.549591,324.944824 
	C185.993866,336.200317 186.409561,346.603760 186.825256,357.007233 
z"/>
<path fill="#414C3F" opacity="1.000000" stroke="none" 
	d="
M320.283295,327.177979 
	C308.856018,311.904907 297.530640,296.279572 286.125061,280.323303 
	C290.292053,280.236450 292.318024,282.664276 294.574249,286.301178 
	C298.649170,292.869812 303.366852,299.398254 309.109924,304.481781 
	C316.111206,310.678986 319.114166,318.127533 320.283295,327.177979 
z"/>
<path fill="#424C42" opacity="1.000000" stroke="none" 
	d="
M119.091858,390.010162 
	C122.441605,390.828033 125.479546,392.640228 128.505142,392.619843 
	C140.738846,392.537445 152.968750,391.890594 165.602600,391.549500 
	C160.869339,397.316711 153.813248,395.782623 147.415482,396.417358 
	C142.717804,396.883423 137.945999,396.593506 133.207520,396.660370 
	C129.573044,396.711639 125.906822,397.125061 122.313179,396.775879 
	C118.115776,396.368073 116.869987,393.667877 119.091858,390.010162 
z"/>
<path fill="#414C3F" opacity="1.000000" stroke="none" 
	d="
M350.040222,364.440277 
	C340.269897,352.668427 330.471436,340.533905 320.531982,328.106110 
	C321.993744,328.372894 324.009857,328.500549 325.127106,329.568573 
	C329.742706,333.980774 334.742218,338.218170 338.363220,343.386719 
	C342.882690,349.837738 346.184509,357.141815 350.040222,364.440277 
z"/>
<path fill="#CDEDCD" opacity="1.000000" stroke="none" 
	d="
M291.736816,125.896057 
	C288.196747,129.480698 285.052704,127.898994 282.822784,124.503235 
	C280.683472,121.245430 278.114746,120.106026 274.282318,119.776169 
	C271.009033,119.494453 267.856293,117.678085 264.677948,116.467735 
	C261.785889,115.366409 258.917908,114.198715 256.065186,112.998688 
	C254.459610,112.323288 252.906448,111.523285 251.165512,110.470345 
	C256.096802,111.111603 261.528412,111.249352 266.214874,113.188263 
	C274.885406,116.775513 283.119690,121.417183 291.736816,125.896057 
z"/>
<path fill="#323232" opacity="1.000000" stroke="none" 
	d="
M119.904922,464.379486 
	C118.108459,465.276459 116.240669,466.255554 114.359505,466.281952 
	C112.288795,466.311035 110.130417,465.665192 108.156212,464.924347 
	C106.958870,464.475037 105.250702,463.385193 105.131813,462.416290 
	C104.660500,458.575012 102.200752,457.568390 98.989983,457.105530 
	C96.642181,456.767090 94.313499,456.265594 97.101585,453.099274 
	C100.297676,452.986450 102.455994,453.488251 104.985664,455.962677 
	C108.094948,459.004181 113.066635,460.125153 117.195541,462.153198 
	C118.151466,462.622742 118.954369,463.403839 119.904922,464.379486 
z"/>
<path fill="#3E4B3E" opacity="1.000000" stroke="none" 
	d="
M186.983612,357.316101 
	C186.409561,346.603760 185.993866,336.200317 185.697449,325.392761 
	C186.877747,327.347473 188.714035,329.658112 188.863968,332.073425 
	C189.472870,341.882172 189.564133,351.723022 189.610840,361.904175 
	C189.375366,362.256317 188.977646,362.005615 188.977646,362.005615 
	C188.365738,360.545410 187.753845,359.085205 186.983612,357.316101 
z"/>
<path fill="#414E3D" opacity="1.000000" stroke="none" 
	d="
M287.242126,236.066162 
	C295.400116,229.867310 302.561768,222.680405 307.683136,213.183807 
	C308.163574,213.416977 308.570740,213.862549 308.572968,214.310089 
	C308.604828,220.834641 295.858917,235.760223 289.447815,236.688721 
	C288.844574,236.776093 288.175659,236.409897 287.242126,236.066162 
z"/>
<path fill="#445243" opacity="1.000000" stroke="none" 
	d="
M272.901306,259.816528 
	C265.799072,249.623627 265.797791,249.621658 276.121124,242.808960 
	C277.509857,241.892487 278.919373,241.007523 280.657715,240.021454 
	C279.914948,242.394501 279.451324,246.239975 277.634735,247.049561 
	C272.515442,249.331009 271.816254,252.725357 272.920258,257.407013 
	C273.067474,258.031281 272.929718,258.722748 272.901306,259.816528 
z"/>
<path fill="#414E3D" opacity="1.000000" stroke="none" 
	d="
M293.094879,352.267517 
	C298.142365,357.852295 303.166992,363.871918 308.359863,370.178101 
	C299.338226,368.941132 293.031525,361.693420 293.094879,352.267517 
z"/>
<path fill="#2A2A2A" opacity="1.000000" stroke="none" 
	d="
M15.321672,160.959488 
	C15.000696,157.163681 14.924702,153.374817 15.205610,149.612610 
	C15.333019,147.906219 16.168247,146.252655 16.913786,144.261444 
	C22.479158,149.204407 21.670977,158.809387 15.321672,160.959488 
z"/>
<path fill="#2A2A2A" opacity="1.000000" stroke="none" 
	d="
M145.063904,17.441040 
	C147.909821,16.490343 150.794708,15.603308 153.735413,15.340028 
	C155.828827,15.152606 157.997406,15.804888 160.561890,16.035149 
	C156.455948,21.187618 149.282013,21.994160 145.063904,17.441040 
z"/>
<path fill="#7B7B7B" opacity="1.000000" stroke="none" 
	d="
M121.526108,32.904152 
	C121.088654,32.435444 121.047417,32.005989 120.927383,31.262672 
	C120.959198,29.170694 121.069801,27.392580 121.217918,25.011223 
	C123.567879,25.011223 125.804947,25.011223 128.479584,25.064709 
	C128.940460,25.445820 128.984665,25.773485 128.984009,26.101063 
	C128.966156,34.961830 128.884949,33.444904 121.526108,32.904152 
z"/>
<path fill="#323232" opacity="1.000000" stroke="none" 
	d="
M472.185547,376.814026 
	C474.646362,384.550568 474.362122,384.911438 465.531921,385.125000 
	C464.746918,378.693176 466.388336,376.675415 472.185547,376.814026 
z"/>
<path fill="#414E3D" opacity="1.000000" stroke="none" 
	d="
M276.236328,325.628418 
	C280.547485,332.137054 284.812500,338.626892 289.193359,345.441620 
	C287.492859,344.381531 285.267242,343.305450 283.941864,341.549774 
	C280.783844,337.366455 277.980438,332.906158 275.202484,328.452515 
	C274.604858,327.494446 274.719543,326.092133 274.903198,324.765564 
	C275.608856,324.929901 275.917419,325.223175 276.225952,325.516418 
	C276.225952,325.516418 276.190125,325.609558 276.236328,325.628418 
z"/>
<path fill="#5A5A5A" opacity="1.000000" stroke="none" 
	d="
M80.985962,440.817963 
	C78.563179,441.151733 76.153938,441.151733 73.378342,441.151733 
	C73.198967,439.041565 73.066338,437.481262 72.953979,435.116364 
	C72.997337,433.545532 73.020416,432.779327 73.043495,432.013092 
	C81.375854,434.010986 81.375854,434.010986 80.985962,440.817963 
z"/>
<path fill="#555555" opacity="1.000000" stroke="none" 
	d="
M25.576437,128.967773 
	C25.142138,128.799286 25.110083,128.638763 25.103399,128.477203 
	C24.800608,121.157707 24.800865,121.157700 32.537235,120.889618 
	C32.831169,128.382111 32.478333,128.789459 25.576437,128.967773 
z"/>
<path fill="#1D1D1D" opacity="1.000000" stroke="none" 
	d="
M72.718079,431.840302 
	C73.020416,432.779327 72.997337,433.545532 72.911270,434.689911 
	C63.748890,434.820770 63.171978,434.291168 62.928001,425.558533 
	C64.195717,425.844849 65.561302,426.439362 66.750557,427.282562 
	C68.691734,428.658905 70.517929,430.197418 72.718079,431.840302 
z"/>
<path fill="#414C3F" opacity="1.000000" stroke="none" 
	d="
M284.435608,277.062195 
	C280.721710,272.197723 277.123993,266.914276 273.415039,261.323914 
	C278.610291,262.333374 284.863983,271.021301 284.435608,277.062195 
z"/>
<path fill="#5A5A5A" opacity="1.000000" stroke="none" 
	d="
M41.485245,104.064804 
	C41.525536,101.094833 38.819275,96.419579 45.591202,97.028419 
	C46.150337,97.355301 46.307678,97.648758 46.412907,97.959839 
	C47.045513,99.829964 47.666164,101.704147 48.290821,103.576965 
	C46.143425,103.773376 43.996033,103.969788 41.485245,104.064804 
z"/>
<path fill="#CDEDCD" opacity="1.000000" stroke="none" 
	d="
M241.798401,108.544739 
	C241.453186,109.167824 240.851105,109.680511 240.253983,109.674812 
	C232.059967,109.596680 223.866638,109.447060 215.316376,109.114685 
	C223.821030,108.674011 232.682434,108.433662 241.798401,108.544739 
z"/>
<path fill="#323232" opacity="1.000000" stroke="none" 
	d="
M480.469971,365.972839 
	C481.221466,368.870605 480.331451,370.587891 477.023071,370.931519 
	C475.656281,371.073547 474.423706,372.507874 472.964355,373.700317 
	C470.823273,370.790558 472.069916,367.275543 475.681458,366.330841 
	C477.073883,365.966644 478.594208,366.091217 480.469971,365.972839 
z"/>
<path fill="#4F4F4F" opacity="1.000000" stroke="none" 
	d="
M384.732910,464.991852 
	C385.042786,466.726501 384.990814,468.427795 384.888184,470.551636 
	C382.584869,470.859314 380.332275,470.744446 377.924530,470.621704 
	C377.734955,465.391754 380.009888,463.906067 384.732910,464.991852 
z"/>
<path fill="#4F4F4F" opacity="1.000000" stroke="none" 
	d="
M403.008240,456.339325 
	C401.413879,456.624481 400.110107,456.632080 398.413788,456.574982 
	C399.809784,454.352631 401.558075,452.159363 403.412994,450.060364 
	C403.924896,449.481110 404.754547,449.182739 405.669922,448.610840 
	C408.431427,452.470886 406.211578,454.376343 403.008240,456.339325 
z"/>
<path fill="#1D1D1D" opacity="1.000000" stroke="none" 
	d="
M344.948669,14.353306 
	C347.556793,14.798007 350.107605,15.599808 352.829956,16.711262 
	C350.810638,17.617039 348.637390,18.427645 346.412567,18.610373 
	C346.014923,18.643032 345.403839,16.076700 344.948669,14.353306 
z"/>
<path fill="#CBE9CB" opacity="1.000000" stroke="none" 
	d="
M188.855804,362.304260 
	C188.977646,362.005615 189.375366,362.256317 189.592468,362.346466 
	C191.021484,364.531677 192.233398,366.626740 193.753723,368.856415 
	C195.034180,370.065765 196.006210,371.140472 197.125122,372.492188 
	C191.336792,371.786774 189.062347,369.078583 188.855804,362.304260 
z"/>
<path fill="#414C3F" opacity="1.000000" stroke="none" 
	d="
M312.357269,374.861115 
	C313.173309,375.604004 313.989319,376.346924 314.901794,377.773132 
	C315.002106,379.300873 315.005981,380.145355 315.001892,380.998352 
	C314.993927,381.006866 314.976807,381.026581 314.976807,381.026581 
	C309.107727,380.529877 308.483154,379.754944 311.031677,375.136414 
	C311.900330,374.910645 312.128784,374.885864 312.357269,374.861115 
z"/>
<path fill="#CDEBCD" opacity="1.000000" stroke="none" 
	d="
M276.358276,325.087708 
	C275.917419,325.223175 275.608856,324.929901 275.117889,324.525879 
	C273.958374,322.611389 272.981293,320.807678 271.921143,318.673096 
	C276.296204,317.385040 277.184631,318.591248 276.358276,325.087708 
z"/>
<path fill="#3E4A3D" opacity="1.000000" stroke="none" 
	d="
M145.873566,132.769440 
	C147.616913,135.510117 149.069519,138.479324 150.566711,141.866119 
	C149.026016,140.619003 147.174179,139.124405 145.960358,137.222610 
	C145.285294,136.164932 145.673706,134.428497 145.873566,132.769440 
z"/>
<path fill="#212121" opacity="1.000000" stroke="none" 
	d="
M338.161743,9.302378 
	C340.746368,9.178196 344.408569,7.360053 344.999939,12.626148 
	C342.759735,11.878977 340.550171,10.731650 338.161743,9.302378 
z"/>
<path fill="#414E3D" opacity="1.000000" stroke="none" 
	d="
M289.218353,346.104279 
	C290.531952,347.543610 291.813110,349.375916 293.132568,351.553650 
	C291.842560,350.098450 290.514221,348.297852 289.218353,346.104279 
z"/>
<path fill="#3E4A3D" opacity="1.000000" stroke="none" 
	d="
M142.028900,128.508850 
	C143.131760,129.170197 144.265457,130.210388 145.544006,131.558838 
	C144.479156,130.873962 143.269455,129.880829 142.028900,128.508850 
z"/>
<path fill="#414C3F" opacity="1.000000" stroke="none" 
	d="
M317.986572,384.001556 
	C317.050781,383.213287 316.115021,382.425018 315.078033,381.331665 
	C314.976807,381.026581 314.993927,381.006866 315.418945,380.978516 
	C316.673401,380.853210 317.502869,380.756317 318.332306,380.659424 
	C318.332306,380.659393 318.000031,380.940643 318.099731,381.211243 
	C318.128479,382.321747 318.057526,383.161652 317.986572,384.001556 
z"/>
<path fill="#3E4A3D" opacity="1.000000" stroke="none" 
	d="
M318.229462,384.016663 
	C318.057526,383.161652 318.128479,382.321747 318.262146,381.065247 
	C319.385223,381.409424 320.445587,382.170258 321.719910,383.183685 
	C321.274445,383.583130 320.614990,383.729950 319.456757,383.970764 
	C318.957947,384.064728 318.472351,384.031769 318.229462,384.016663 
z"/>
<path fill="#424C42" opacity="1.000000" stroke="none" 
	d="
M172.151306,391.700256 
	C172.833481,391.488586 173.672577,391.489746 174.789841,391.646179 
	C174.148087,391.838654 173.228165,391.875885 172.151306,391.700256 
z"/>
<path fill="#3E4A3D" opacity="1.000000" stroke="none" 
	d="
M148.468994,365.096344 
	C148.330399,365.894928 147.931839,366.784027 147.290039,367.840149 
	C147.434204,367.067108 147.821609,366.126953 148.468994,365.096344 
z"/>
<path fill="#414E3D" opacity="1.000000" stroke="none" 
	d="
M308.516052,370.781799 
	C309.047516,371.025726 309.539673,371.547852 310.133423,372.320343 
	C309.648956,372.067169 309.062836,371.563568 308.516052,370.781799 
z"/>
<path fill="#CDEDCD" opacity="1.000000" stroke="none" 
	d="
M245.860901,108.767471 
	C245.502441,109.013809 244.955902,109.132980 244.211716,109.147736 
	C244.566986,108.908981 245.119904,108.774643 245.860901,108.767471 
z"/>
<path fill="#CDEDCD" opacity="1.000000" stroke="none" 
	d="
M249.972626,109.673691 
	C249.575027,109.773178 249.037415,109.585678 248.258209,109.244766 
	C248.621964,109.189804 249.227295,109.288254 249.972626,109.673691 
z"/>
<path fill="#414E3D" opacity="1.000000" stroke="none" 
	d="
M312.243042,374.572449 
	C312.128784,374.885864 311.900330,374.910645 311.327606,374.961243 
	C311.008820,374.748352 311.034271,374.509583 311.104309,373.912659 
	C311.475555,373.797638 311.802185,374.040741 312.243042,374.572449 
z"/>
<path fill="#3E4A3D" opacity="1.000000" stroke="none" 
	d="
M149.799927,360.122559 
	C149.886154,360.167023 149.923462,360.332001 149.905731,360.744812 
	C149.721161,360.753052 149.687927,360.503204 149.799927,360.122559 
z"/>
<path fill="#414C3F" opacity="1.000000" stroke="none" 
	d="
M284.759888,277.948059 
	C284.733002,278.025177 284.474976,277.944092 284.450256,277.811218 
	C284.425537,277.678345 284.786743,277.870972 284.759888,277.948059 
z"/>
<path fill="#323232" opacity="1.000000" stroke="none" 
	d="
M121.583878,465.715485 
	C121.566971,465.833252 121.392929,465.406189 121.338501,465.182983 
	C121.474220,465.131500 121.579788,465.344116 121.583878,465.715485 
z"/>
<path fill="#454745" opacity="1.000000" stroke="none" 
	d="
M185.656952,203.017426 
	C185.575912,201.932953 185.494858,200.848465 185.772430,199.112015 
	C186.752182,193.730408 187.804550,189.010376 187.909943,184.269287 
	C188.177780,172.220703 187.991486,160.162521 188.065521,148.108658 
	C188.077621,146.136597 188.511795,144.169281 188.711319,142.195770 
	C189.126282,138.091721 189.514755,133.985016 189.914108,129.879395 
	C189.914108,129.879395 189.958389,129.940903 190.322220,129.908585 
	C195.125580,127.974884 199.565125,126.073502 204.004654,124.172119 
	C204.762756,124.112671 205.520874,124.053230 206.962097,124.217850 
	C209.420319,124.358566 211.195419,124.275223 212.970520,124.191879 
	C248.022552,124.849586 274.082214,142.907516 282.004669,175.716293 
	C287.057098,196.639679 282.650940,216.186630 266.109070,231.455246 
	C258.648865,238.341217 249.145737,241.963501 239.331818,242.522354 
	C224.115082,243.388855 208.808395,242.676208 193.154724,242.036682 
	C189.894913,235.438919 187.810837,229.587173 188.393692,222.433762 
	C188.911545,216.078171 186.676743,209.498306 185.656952,203.017426 
z"/>
<path fill="#C7E2C7" opacity="1.000000" stroke="none" 
	d="
M152.368820,352.809631 
	C152.145782,313.249207 152.273605,273.502319 152.274490,233.755402 
	C152.275085,207.145279 152.095444,180.535172 152.064545,153.460602 
	C156.194138,154.508270 155.957611,158.043655 155.964737,161.365860 
	C156.002945,179.191986 155.987656,197.018219 155.988113,214.844421 
	C155.989151,255.828018 156.100922,296.812317 155.842148,337.794312 
	C155.810898,342.743713 153.773361,347.680511 152.368820,352.809631 
z"/>
<path fill="#414C3F" opacity="1.000000" stroke="none" 
	d="
M189.616058,130.096375 
	C189.514755,133.985016 189.126282,138.091721 188.711319,142.195770 
	C188.511795,144.169281 188.077621,146.136597 188.065521,148.108658 
	C187.991486,160.162521 188.177780,172.220703 187.909943,184.269287 
	C187.804550,189.010376 186.752182,193.730408 185.893997,198.718628 
	C186.081207,178.755920 186.423370,158.532150 187.028061,138.316254 
	C187.108475,135.628189 188.521896,132.980011 189.616058,130.096375 
z"/>
<path fill="#CDEBCD" opacity="1.000000" stroke="none" 
	d="
M351.052307,366.978760 
	C360.213409,374.746307 370.570129,379.592682 383.007538,379.846497 
	C388.396729,379.956482 389.287933,382.373016 387.027435,389.401825 
	C384.370819,384.480072 381.141602,382.521912 374.880157,383.205719 
	C370.731537,383.658813 367.870300,382.482483 364.817932,379.453094 
	C361.881317,376.538574 357.792938,374.588654 353.917023,372.881592 
	C351.087067,371.635193 349.816864,370.342896 351.052307,366.978760 
z"/>
<path fill="#414C3F" opacity="1.000000" stroke="none" 
	d="
M185.536591,203.469788 
	C186.676743,209.498306 188.911545,216.078171 188.393692,222.433762 
	C187.810837,229.587173 189.894913,235.438919 192.845291,241.794495 
	C187.286530,241.493698 186.217438,237.360199 186.067535,232.801590 
	C185.751114,223.178375 185.622131,213.548981 185.536591,203.469788 
z"/>
<path fill="#414C3F" opacity="1.000000" stroke="none" 
	d="
M203.595551,124.110146 
	C199.565125,126.073502 195.125580,127.974884 190.285278,129.900177 
	C192.943253,124.852158 198.177063,124.704178 203.595551,124.110146 
z"/>
<path fill="#CBE9CB" opacity="1.000000" stroke="none" 
	d="
M202.698486,376.764221 
	C207.681717,377.660767 212.650482,378.922272 217.836044,380.523743 
	C214.181229,380.745117 210.268799,380.909210 206.459518,380.359039 
	C205.074417,380.158997 203.935333,378.255493 202.698486,376.764221 
z"/>
<path fill="#CBE9CB" opacity="1.000000" stroke="none" 
	d="
M197.266296,373.082886 
	C198.803833,373.770477 200.396973,374.823822 202.224854,376.083466 
	C200.747025,375.342712 199.034454,374.395691 197.266296,373.082886 
z"/>
<path fill="#414C3F" opacity="1.000000" stroke="none" 
	d="
M212.553131,124.105042 
	C211.195419,124.275223 209.420319,124.358566 207.338196,124.284508 
	C208.732697,124.090805 210.434219,124.054504 212.553131,124.105042 
z"/>
<path fill="#3E4A3D" opacity="1.000000" stroke="none" 
	d="
M318.171265,380.376251 
	C317.502869,380.756317 316.673401,380.853210 315.426880,380.969971 
	C315.005981,380.145355 315.002106,379.300873 314.999176,378.033508 
	C316.003479,378.438110 317.006866,379.265594 318.171265,380.376251 
z"/>
</svg>